<svg width="38" height="38" viewBox="0 0 38 38" fill="none" xmlns="http://www.w3.org/2000/svg">
<g clip-path="url(#clip0_18_134)">
<path d="M19 3.5625C23.0943 3.5625 27.0209 5.18895 29.916 8.08404C32.8111 10.9791 34.4375 14.9057 34.4375 19C34.4375 23.0943 32.8111 27.0209 29.916 29.916C27.0209 32.8111 23.0943 34.4375 19 34.4375C14.9057 34.4375 10.9791 32.8111 8.08404 29.916C5.18895 27.0209 3.5625 23.0943 3.5625 19C3.5625 14.9057 5.18895 10.9791 8.08404 8.08404C10.9791 5.18895 14.9057 3.5625 19 3.5625ZM19 38C24.0391 38 28.8718 35.9982 32.435 32.435C35.9982 28.8718 38 24.0391 38 19C38 13.9609 35.9982 9.12816 32.435 5.56497C28.8718 2.00178 24.0391 0 19 0C13.9609 0 9.12816 2.00178 5.56497 5.56497C2.00178 9.12816 0 13.9609 0 19C0 24.0391 2.00178 28.8718 5.56497 32.435C9.12816 35.9982 13.9609 38 19 38ZM14.7992 23.2008C12.4836 20.8852 12.4836 17.1223 14.7992 14.8066C17.1148 12.491 20.8777 12.491 23.1934 14.8066C23.891 15.5043 25.0191 15.5043 25.7094 14.8066C26.3996 14.109 26.407 12.9809 25.7094 12.2906C21.9984 8.57969 15.9867 8.57969 12.2758 12.2906C8.56484 16.0016 8.56484 22.0133 12.2758 25.7242C15.9867 29.4352 21.9984 29.4352 25.7094 25.7242C26.407 25.0266 26.407 23.8984 25.7094 23.2082C25.0117 22.518 23.8836 22.5105 23.1934 23.2082C20.8777 25.5238 17.1148 25.5238 14.7992 23.2082V23.2008Z" fill="black"/>
</g>
<defs>
<clipPath id="clip0_18_134">
<rect width="38" height="38" fill="white"/>
</clipPath>
</defs>
</svg>
