<svg width="42" height="29" viewBox="0 0 42 29" fill="none" xmlns="http://www.w3.org/2000/svg">
<path d="M3.9375 3.625C1.76367 3.625 0 4.84277 0 6.34375C0 7.19902 0.582422 8.00332 1.575 8.51875L19.425 17.7625C20.3602 18.2439 21.6398 18.2439 22.575 17.7625L40.425 8.51875C41.4176 8.00332 42 7.19902 42 6.34375C42 4.84277 40.2363 3.625 38.0625 3.625H3.9375ZM0 9.96875V21.75C0 23.7494 2.3543 25.375 5.25 25.375H36.75C39.6457 25.375 42 23.7494 42 21.75V9.96875L24.15 19.2125C22.2797 20.1811 19.7203 20.1811 17.85 19.2125L0 9.96875Z" fill="#F5EAEA"/>
</svg>
